<?xml version="1.0" encoding="iso-8859-1"?>
<!-- Generator: Adobe Illustrator 15.1.0, SVG Export Plug-In . SVG Version: 6.00 Build 0)  -->
<!DOCTYPE svg PUBLIC "-//W3C//DTD SVG 1.1//EN" "http://www.w3.org/Graphics/SVG/1.1/DTD/svg11.dtd">
<svg version="1.1" id="Layer_1" xmlns="http://www.w3.org/2000/svg" xmlns:xlink="http://www.w3.org/1999/xlink" x="0px" y="0px"
	 width="128px" height="128px" viewBox="0 0 128 128" style="enable-background:new 0 0 128 128;" xml:space="preserve">
<g>
	<circle style="fill:#88C5CC;" cx="64" cy="64" r="64"/>
	<rect x="31" y="50" style="fill:#406A80;" width="66" height="58"/>
	<rect x="27" y="54" style="fill:#E6E6E6;" width="16" height="50"/>
	<g>
		<rect x="29" y="54" style="fill:#CCCCCC;" width="2" height="50"/>
		<rect x="34" y="54" style="fill:#CCCCCC;" width="2" height="50"/>
		<rect x="39" y="54" style="fill:#CCCCCC;" width="2" height="50"/>
	</g>
	<rect x="85" y="54" style="fill:#E6E6E6;" width="16" height="50"/>
	<path style="fill:#E6E6E6;" d="M10,128v-8c0-1.1,0.9-2,2-2h104c1.1,0,2,0.9,2,2v8H10z"/>
	<path style="fill:#E6E6E6;" d="M16,118v-8c0-1.1,0.9-2,2-2h92c1.1,0,2,0.9,2,2v8H16z"/>
	<path style="fill:#F5F5F5;" d="M108.414,42.586l-44-30C64.024,12.196,63.512,12,63,12s-1.024,0.196-1.414,0.586l-44,30
		C17.199,42.972,17.004,43.493,17,44c-0.004,0.517,0.191,1.02,0.586,1.414C17.977,45.805,18.488,46,19,46h44h44
		c0.512,0,1.023-0.195,1.414-0.586c0.395-0.395,0.59-0.897,0.586-1.414C108.996,43.493,108.801,42.972,108.414,42.586z"/>
	<polygon style="fill:#CCCCCC;" points="25.546,42 63,16.463 100.454,42 	"/>
	<path style="fill:#CCCCCC;" d="M113,48c0,1.1-0.9,2-2,2H15c-1.1,0-2-0.9-2-2l0,0c0-1.1,0.9-2,2-2h96C112.1,46,113,46.9,113,48
		L113,48z"/>
	<rect x="56" y="54" style="fill:#E6E6E6;" width="16" height="50"/>
	<g>
		<rect x="58" y="54" style="fill:#CCCCCC;" width="2" height="50"/>
		<rect x="63" y="54" style="fill:#CCCCCC;" width="2" height="50"/>
		<rect x="68" y="54" style="fill:#CCCCCC;" width="2" height="50"/>
	</g>
	<g>
		<rect x="87" y="54" style="fill:#CCCCCC;" width="2" height="50"/>
		<rect x="92" y="54" style="fill:#CCCCCC;" width="2" height="50"/>
		<rect x="97" y="54" style="fill:#CCCCCC;" width="2" height="50"/>
	</g>
	<path style="fill:#F5F5F5;" d="M45,106c0,1.1-0.9,2-2,2H27c-1.1,0-2-0.9-2-2l0,0c0-1.1,0.9-2,2-2h16C44.1,104,45,104.9,45,106
		L45,106z"/>
	<path style="fill:#F5F5F5;" d="M45,52c0,1.1-0.9,2-2,2H27c-1.1,0-2-0.9-2-2l0,0c0-1.1,0.9-2,2-2h16C44.1,50,45,50.9,45,52L45,52z"
		/>
	<path style="fill:#F5F5F5;" d="M74,106c0,1.1-0.9,2-2,2H56c-1.1,0-2-0.9-2-2l0,0c0-1.1,0.9-2,2-2h16C73.1,104,74,104.9,74,106
		L74,106z"/>
	<path style="fill:#F5F5F5;" d="M74,52c0,1.1-0.9,2-2,2H56c-1.1,0-2-0.9-2-2l0,0c0-1.1,0.9-2,2-2h16C73.1,50,74,50.9,74,52L74,52z"
		/>
	<path style="fill:#F5F5F5;" d="M103,106c0,1.1-0.9,2-2,2H85c-1.1,0-2-0.9-2-2l0,0c0-1.1,0.9-2,2-2h16C102.1,104,103,104.9,103,106
		L103,106z"/>
	<path style="fill:#F5F5F5;" d="M103,52c0,1.1-0.9,2-2,2H85c-1.1,0-2-0.9-2-2l0,0c0-1.1,0.9-2,2-2h16C102.1,50,103,50.9,103,52
		L103,52z"/>
	<rect x="16" y="117" style="fill:#CCCCCC;" width="96" height="1"/>
	<g>
		<path style="fill:#2179A6;" d="M63,35c-1.654,0-3-1.346-3-3c0-0.552,0.448-1,1-1s1,0.448,1,1c0,0.551,0.449,1,1,1s1-0.449,1-1
			s-0.449-1-1-1c-1.654,0-3-1.346-3-3s1.346-3,3-3c1.654,0,3,1.346,3,3c0,0.552-0.448,1-1,1s-1-0.448-1-1c0-0.551-0.449-1-1-1
			s-1,0.449-1,1s0.449,1,1,1c1.654,0,3,1.346,3,3S64.654,35,63,35z"/>
		<path style="fill:#2179A6;" d="M63,27c-0.552,0-1-0.448-1-1v-2c0-0.552,0.448-1,1-1s1,0.448,1,1v2C64,26.552,63.552,27,63,27z"/>
		<path style="fill:#2179A6;" d="M63,37c-0.552,0-1-0.448-1-1v-2c0-0.552,0.448-1,1-1s1,0.448,1,1v2C64,36.552,63.552,37,63,37z"/>
	</g>
</g>
</svg>
